# xmcd
#
# Track frame offsets:
#	150
#	14569
#	28099
#	41886
#	55940
#	73152
#	88189
#	100971
#	115320
#	126799
#	148949
#	164033
#	180103
#	194543
#	208819
#	226173
#	239972
#	255923
#	268407
#	281545
#
# Disc length: 3965 seconds
#
# Revision: 2
# Processed by: cddbd v1.5.2PL0 Copyright (c) Steve Scherf et al.
# Submitted via: audiograbber 1.83.01
#
DISCID=3c0f7b14
DTITLE=Lacy J. Dalton - Survivor and Lacy J. [remastered 2012]
DYEAR=1989
DGENRE=Country
TTITLE0=Survivor - I'm A Survivor
TTITLE1=Survivor - Walking Wounded
TTITLE2=Survivor - A Diamond All The Time
TTITLE3=Survivor - Still Crazy After All These Years
TTITLE4=Survivor - Old Friends
TTITLE5=Survivor - Turn To The One
TTITLE6=Survivor - The Heart
TTITLE7=Survivor - Me And These Arms
TTITLE8=Survivor - They Don't Make Them Like They Used To
TTITLE9=Survivor - Hard Luck Ace
TTITLE10=Lacy J. - Don't Try To Tell Me (Nothin's Goin' On)
TTITLE11=Lacy J. - Black Coffee
TTITLE12=Lacy J. - Where Did We Go Right?
TTITLE13=Lacy J. - Turn To A Little 3rd Rate Romance
TTITLE14=Lacy J. - Long Way Down
TTITLE15=Lacy J. - Ain't No Question
TTITLE16=Lacy J. - Lonesome (As The Night Is Long)
TTITLE17=Lacy J. - Walk That Line
TTITLE18=Lacy J. - Shaky Ground (Duet with Glen Campbell)
TTITLE19=Lacy J. - That Road Still Looks Real Good To Me
EXTD=
EXTT0=
EXTT1=
EXTT2=
EXTT3=
EXTT4=
EXTT5=
EXTT6=
EXTT7=
EXTT8=
EXTT9=
EXTT10=
EXTT11=
EXTT12=
EXTT13=
EXTT14=
EXTT15=
EXTT16=
EXTT17=
EXTT18=
EXTT19=
PLAYORDER=
